<mxfile host="app.diagrams.net" modified="2024-02-07T16:56:48.402Z" agent="Mozilla/5.0 (Windows NT 10.0; Win64; x64) AppleWebKit/537.36 (KHTML, like Gecko) Chrome/121.0.0.0 Safari/537.36" etag="t_El81chxmEz5RYRwajP" version="23.0.1" type="device">
  <diagram id="R2lEEEUBdFMjLlhIrx00" name="Page-1">
    <mxGraphModel dx="949" dy="1059" grid="1" gridSize="10" guides="1" tooltips="1" connect="1" arrows="1" fold="1" page="1" pageScale="1" pageWidth="850" pageHeight="1100" math="0" shadow="0" extFonts="Permanent Marker^https://fonts.googleapis.com/css?family=Permanent+Marker">
      <root>
        <mxCell id="0" />
        <mxCell id="1" parent="0" />
        <mxCell id="Okfd3d-Vg6BYusJC69hB-7" value="" style="edgeStyle=none;curved=1;rounded=0;orthogonalLoop=1;jettySize=auto;html=1;fontSize=12;startSize=8;endSize=8;" edge="1" parent="1" source="Okfd3d-Vg6BYusJC69hB-1" target="Okfd3d-Vg6BYusJC69hB-6">
          <mxGeometry relative="1" as="geometry" />
        </mxCell>
        <mxCell id="Okfd3d-Vg6BYusJC69hB-8" style="edgeStyle=none;curved=1;rounded=0;orthogonalLoop=1;jettySize=auto;html=1;exitX=0;exitY=0;exitDx=0;exitDy=0;entryX=1;entryY=1;entryDx=0;entryDy=0;fontSize=12;startSize=8;endSize=8;" edge="1" parent="1" source="Okfd3d-Vg6BYusJC69hB-1" target="Okfd3d-Vg6BYusJC69hB-5">
          <mxGeometry relative="1" as="geometry" />
        </mxCell>
        <mxCell id="Okfd3d-Vg6BYusJC69hB-9" value="" style="edgeStyle=none;curved=1;rounded=0;orthogonalLoop=1;jettySize=auto;html=1;fontSize=12;startSize=8;endSize=8;" edge="1" parent="1" source="Okfd3d-Vg6BYusJC69hB-1" target="Okfd3d-Vg6BYusJC69hB-4">
          <mxGeometry relative="1" as="geometry" />
        </mxCell>
        <mxCell id="Okfd3d-Vg6BYusJC69hB-10" style="edgeStyle=none;curved=1;rounded=0;orthogonalLoop=1;jettySize=auto;html=1;exitX=0;exitY=1;exitDx=0;exitDy=0;entryX=1;entryY=0;entryDx=0;entryDy=0;fontSize=12;startSize=8;endSize=8;" edge="1" parent="1" source="Okfd3d-Vg6BYusJC69hB-1" target="Okfd3d-Vg6BYusJC69hB-3">
          <mxGeometry relative="1" as="geometry" />
        </mxCell>
        <mxCell id="Okfd3d-Vg6BYusJC69hB-11" style="edgeStyle=none;curved=1;rounded=0;orthogonalLoop=1;jettySize=auto;html=1;exitX=0.5;exitY=1;exitDx=0;exitDy=0;entryX=0.5;entryY=0;entryDx=0;entryDy=0;fontSize=12;startSize=8;endSize=8;" edge="1" parent="1" source="Okfd3d-Vg6BYusJC69hB-1" target="Okfd3d-Vg6BYusJC69hB-2">
          <mxGeometry relative="1" as="geometry" />
        </mxCell>
        <mxCell id="Okfd3d-Vg6BYusJC69hB-1" value="Proveedores" style="rounded=0;whiteSpace=wrap;html=1;fontSize=16;" vertex="1" parent="1">
          <mxGeometry x="190" y="140" width="120" height="60" as="geometry" />
        </mxCell>
        <mxCell id="Okfd3d-Vg6BYusJC69hB-2" value="Nombre" style="ellipse;whiteSpace=wrap;html=1;fontSize=16;" vertex="1" parent="1">
          <mxGeometry x="180" y="230" width="120" height="80" as="geometry" />
        </mxCell>
        <mxCell id="Okfd3d-Vg6BYusJC69hB-3" value="DirecciÃ³n" style="ellipse;whiteSpace=wrap;html=1;fontSize=16;" vertex="1" parent="1">
          <mxGeometry x="20" y="230" width="120" height="80" as="geometry" />
        </mxCell>
        <mxCell id="Okfd3d-Vg6BYusJC69hB-4" value="Ciudad" style="ellipse;whiteSpace=wrap;html=1;fontSize=16;" vertex="1" parent="1">
          <mxGeometry x="20" y="120" width="120" height="80" as="geometry" />
        </mxCell>
        <mxCell id="Okfd3d-Vg6BYusJC69hB-5" value="Provincia" style="ellipse;whiteSpace=wrap;html=1;fontSize=16;" vertex="1" parent="1">
          <mxGeometry x="20" y="20" width="120" height="80" as="geometry" />
        </mxCell>
        <mxCell id="Okfd3d-Vg6BYusJC69hB-6" value="ID" style="ellipse;whiteSpace=wrap;html=1;fontSize=16;" vertex="1" parent="1">
          <mxGeometry x="180" y="20" width="120" height="80" as="geometry" />
        </mxCell>
        <mxCell id="Okfd3d-Vg6BYusJC69hB-18" value="" style="edgeStyle=none;curved=1;rounded=0;orthogonalLoop=1;jettySize=auto;html=1;fontSize=12;startSize=8;endSize=8;" edge="1" parent="1" source="Okfd3d-Vg6BYusJC69hB-12" target="Okfd3d-Vg6BYusJC69hB-13">
          <mxGeometry relative="1" as="geometry" />
        </mxCell>
        <mxCell id="Okfd3d-Vg6BYusJC69hB-19" style="edgeStyle=none;curved=1;rounded=0;orthogonalLoop=1;jettySize=auto;html=1;exitX=1;exitY=0;exitDx=0;exitDy=0;entryX=0;entryY=1;entryDx=0;entryDy=0;fontSize=12;startSize=8;endSize=8;" edge="1" parent="1" source="Okfd3d-Vg6BYusJC69hB-12" target="Okfd3d-Vg6BYusJC69hB-17">
          <mxGeometry relative="1" as="geometry" />
        </mxCell>
        <mxCell id="Okfd3d-Vg6BYusJC69hB-20" value="" style="edgeStyle=none;curved=1;rounded=0;orthogonalLoop=1;jettySize=auto;html=1;fontSize=12;startSize=8;endSize=8;" edge="1" parent="1" source="Okfd3d-Vg6BYusJC69hB-12" target="Okfd3d-Vg6BYusJC69hB-16">
          <mxGeometry relative="1" as="geometry" />
        </mxCell>
        <mxCell id="Okfd3d-Vg6BYusJC69hB-21" style="edgeStyle=none;curved=1;rounded=0;orthogonalLoop=1;jettySize=auto;html=1;exitX=1;exitY=1;exitDx=0;exitDy=0;entryX=0;entryY=0;entryDx=0;entryDy=0;fontSize=12;startSize=8;endSize=8;" edge="1" parent="1" source="Okfd3d-Vg6BYusJC69hB-12" target="Okfd3d-Vg6BYusJC69hB-15">
          <mxGeometry relative="1" as="geometry" />
        </mxCell>
        <mxCell id="Okfd3d-Vg6BYusJC69hB-22" style="edgeStyle=none;curved=1;rounded=0;orthogonalLoop=1;jettySize=auto;html=1;exitX=0.5;exitY=1;exitDx=0;exitDy=0;entryX=0.5;entryY=0;entryDx=0;entryDy=0;fontSize=12;startSize=8;endSize=8;" edge="1" parent="1" source="Okfd3d-Vg6BYusJC69hB-12" target="Okfd3d-Vg6BYusJC69hB-14">
          <mxGeometry relative="1" as="geometry" />
        </mxCell>
        <mxCell id="Okfd3d-Vg6BYusJC69hB-12" value="Piezas" style="rounded=0;whiteSpace=wrap;html=1;fontSize=16;" vertex="1" parent="1">
          <mxGeometry x="530" y="140" width="120" height="60" as="geometry" />
        </mxCell>
        <mxCell id="Okfd3d-Vg6BYusJC69hB-13" value="ID" style="ellipse;whiteSpace=wrap;html=1;fontSize=16;" vertex="1" parent="1">
          <mxGeometry x="540" y="20" width="120" height="80" as="geometry" />
        </mxCell>
        <mxCell id="Okfd3d-Vg6BYusJC69hB-14" value="Nombre" style="ellipse;whiteSpace=wrap;html=1;fontSize=16;" vertex="1" parent="1">
          <mxGeometry x="540" y="240" width="120" height="80" as="geometry" />
        </mxCell>
        <mxCell id="Okfd3d-Vg6BYusJC69hB-15" value="Color" style="ellipse;whiteSpace=wrap;html=1;fontSize=16;" vertex="1" parent="1">
          <mxGeometry x="680" y="240" width="120" height="80" as="geometry" />
        </mxCell>
        <mxCell id="Okfd3d-Vg6BYusJC69hB-16" value="Precio" style="ellipse;whiteSpace=wrap;html=1;fontSize=16;" vertex="1" parent="1">
          <mxGeometry x="680" y="130" width="120" height="80" as="geometry" />
        </mxCell>
        <mxCell id="Okfd3d-Vg6BYusJC69hB-17" value="Categoria" style="ellipse;whiteSpace=wrap;html=1;fontSize=16;" vertex="1" parent="1">
          <mxGeometry x="680" y="20" width="120" height="80" as="geometry" />
        </mxCell>
        <mxCell id="Okfd3d-Vg6BYusJC69hB-24" value="" style="edgeStyle=none;curved=1;rounded=0;orthogonalLoop=1;jettySize=auto;html=1;fontSize=12;startSize=8;endSize=8;" edge="1" parent="1" source="Okfd3d-Vg6BYusJC69hB-23" target="Okfd3d-Vg6BYusJC69hB-1">
          <mxGeometry relative="1" as="geometry" />
        </mxCell>
        <mxCell id="Okfd3d-Vg6BYusJC69hB-25" value="" style="edgeStyle=none;curved=1;rounded=0;orthogonalLoop=1;jettySize=auto;html=1;fontSize=12;startSize=8;endSize=8;" edge="1" parent="1" source="Okfd3d-Vg6BYusJC69hB-23" target="Okfd3d-Vg6BYusJC69hB-12">
          <mxGeometry relative="1" as="geometry" />
        </mxCell>
        <mxCell id="Okfd3d-Vg6BYusJC69hB-28" value="" style="edgeStyle=none;curved=1;rounded=0;orthogonalLoop=1;jettySize=auto;html=1;fontSize=12;startSize=8;endSize=8;" edge="1" parent="1" source="Okfd3d-Vg6BYusJC69hB-23" target="Okfd3d-Vg6BYusJC69hB-27">
          <mxGeometry relative="1" as="geometry" />
        </mxCell>
        <mxCell id="Okfd3d-Vg6BYusJC69hB-29" value="" style="edgeStyle=none;curved=1;rounded=0;orthogonalLoop=1;jettySize=auto;html=1;fontSize=12;startSize=8;endSize=8;" edge="1" parent="1" source="Okfd3d-Vg6BYusJC69hB-23" target="Okfd3d-Vg6BYusJC69hB-26">
          <mxGeometry relative="1" as="geometry" />
        </mxCell>
        <mxCell id="Okfd3d-Vg6BYusJC69hB-23" value="Suministro" style="rhombus;whiteSpace=wrap;html=1;fontSize=16;" vertex="1" parent="1">
          <mxGeometry x="375" y="140" width="100" height="60" as="geometry" />
        </mxCell>
        <mxCell id="Okfd3d-Vg6BYusJC69hB-26" value="Fecha" style="ellipse;whiteSpace=wrap;html=1;fontSize=16;" vertex="1" parent="1">
          <mxGeometry x="350" y="245" width="70" height="50" as="geometry" />
        </mxCell>
        <mxCell id="Okfd3d-Vg6BYusJC69hB-27" value="Cantidad" style="ellipse;whiteSpace=wrap;html=1;fontSize=16;" vertex="1" parent="1">
          <mxGeometry x="430" y="245" width="80" height="50" as="geometry" />
        </mxCell>
        <mxCell id="Okfd3d-Vg6BYusJC69hB-30" value="N:1" style="text;html=1;strokeColor=none;fillColor=none;align=center;verticalAlign=middle;whiteSpace=wrap;rounded=0;fontSize=16;" vertex="1" parent="1">
          <mxGeometry x="395" y="110" width="60" height="30" as="geometry" />
        </mxCell>
      </root>
    </mxGraphModel>
  </diagram>
</mxfile>
